# Blender v2.74 (sub 0) OBJ File: 'ship.blend'
# www.blender.org
mtllib ship.mtl
o Ship_Cube
v 0.986947 -0.065657 -0.067432
v 0.986947 -0.065657 1.932568
v -1.013053 -0.065657 1.932567
v -1.013053 -0.065657 -0.067433
v 0.986947 -0.065657 -0.067432
v 0.986947 -0.065657 1.932568
v -1.013053 -0.065657 1.932567
v -1.013053 -0.065657 -0.067433
v 0.986947 0.434343 -0.067432
v 0.986947 0.434343 1.932568
v -1.013053 0.434343 1.932567
v -1.013053 0.434343 -0.067433
v 0.986947 0.434343 -0.067432
v 0.986947 0.434343 1.932568
v -1.013053 0.434343 1.932567
v -1.013053 0.434343 -0.067433
v 0.986947 -0.565657 -0.067432
v 0.986947 -0.565657 1.932567
v -1.013053 -0.565657 1.932567
v -1.013053 -0.565657 -0.067433
v 0.986947 -0.565657 -0.067432
v 0.986947 -0.565657 1.932567
v -1.013053 -0.565657 1.932567
v -1.013053 -0.565657 -0.067433
v -0.013053 0.934343 -1.067432
v -0.013053 0.934343 1.932567
v -0.013053 -0.065657 1.932567
v -0.013053 0.434343 1.932567
v -0.013053 -0.565657 1.932567
v -0.513053 0.934343 -1.067433
v -0.513053 0.934343 1.932567
v -0.513053 -0.065657 -1.067433
v -0.513053 -0.065657 1.932567
v -0.513053 0.434343 -1.067433
v -0.513053 0.434343 1.932567
v -0.513053 -0.565657 1.932567
v -0.513053 -0.565657 -1.067433
v 0.486947 0.934343 -1.067432
v 0.486946 0.934343 1.932568
v 0.486947 -0.065657 -1.067433
v 0.486947 -0.065657 1.932567
v 0.486947 0.434343 -1.067432
v 0.486947 0.434343 1.932568
v 0.486947 -0.565657 1.932567
v 0.486947 -0.565657 -1.067433
v 0.486947 -0.065657 -2.067433
v 0.236947 -0.065657 -2.567433
v 0.486948 0.434343 -2.067432
v -0.013053 0.434343 -2.067433
v -0.263053 0.434343 -2.567433
v -0.263052 -0.065657 -2.567433
v -0.513053 -0.065657 -2.067433
v -0.513053 0.434343 -2.067433
v 0.236947 0.434343 -2.567433
v -0.013053 0.934343 -0.063991
v -0.512578 0.933383 -0.073259
v 0.486167 0.933819 -0.075262
v 0.486947 -0.065657 -2.567433
v -0.013052 -0.065657 -2.567433
v 0.486948 0.434343 -2.567432
v -0.013052 0.434343 -2.567433
v -0.513052 -0.065657 -2.567433
v -0.513053 0.434343 -2.567433
v -0.513053 0.059343 -2.567433
v -0.013052 0.434343 -3.067433
v 0.236947 0.059343 -2.567433
v -0.263052 0.059343 -2.567433
v -0.263053 0.184343 -2.567433
v 0.236948 0.184343 -2.567433
v -0.513053 0.184343 -2.567433
v 0.486948 0.184343 -2.567433
v -0.013052 0.184343 -3.067433
v 0.486948 0.059343 -2.567433
v -0.138053 0.434343 -2.567433
v -0.138053 0.434343 -3.067433
v -0.138053 0.184343 -3.067433
v 0.111947 0.434343 -2.567433
v 0.111947 0.434343 -3.067433
v 0.111947 0.184343 -3.067433
v 0.174447 0.434343 -2.567433
v 0.174447 0.434343 -3.067433
v 0.174447 0.184343 -3.067433
v -0.200553 0.434343 -2.567433
v -0.200553 0.434343 -3.067433
v -0.200553 0.184343 -3.067433
v 2.189201 0.037397 1.432568
v 2.189201 0.037397 3.432568
v 1.784693 0.331290 1.432568
v 1.784693 0.331289 3.432568
v -2.215307 0.037397 3.432567
v -2.215307 0.037397 1.432567
v -1.810799 0.331290 3.432567
v -1.810799 0.331289 1.432567
v 0.236947 -0.065657 1.932567
v 0.236947 0.434343 1.932568
v -0.263053 -0.065657 1.932567
v -0.263053 0.434343 1.932567
v -0.763053 -0.065657 1.932567
v -0.763053 0.434343 1.932567
v 0.736947 -0.065657 1.932568
v 0.736947 0.434343 1.932568
v -0.263053 -0.065657 2.432567
v -0.513053 -0.065657 2.432567
v -0.263053 0.434343 2.432567
v -0.513053 0.434343 2.432567
v 0.736947 -0.065657 2.432568
v 0.486947 -0.065657 2.432568
v 0.736946 0.434343 2.432568
v 0.486946 0.434343 2.432568
v 0.236947 -0.065657 2.432567
v 0.236946 0.434343 2.432568
v -0.763053 -0.065657 2.432567
v -0.763053 0.434343 2.432567
v -0.263053 0.934343 1.932567
v 0.236946 0.934343 1.932568
v -0.263053 0.184343 2.432567
v 0.236947 0.184343 2.432568
v 0.736946 0.184343 2.432568
v -0.763053 0.184343 2.432567
v -0.388053 -0.065657 2.432567
v -0.388053 0.434343 2.432567
v 0.611947 -0.065657 2.432568
v 0.611946 0.434343 2.432568
v 0.361947 -0.065657 2.432567
v 0.361946 0.434343 2.432568
v -0.263053 0.059343 2.432567
v 0.236947 0.059343 2.432567
v -0.638053 -0.065657 2.432567
v -0.638053 0.434343 2.432567
v 0.736946 0.059343 2.432568
v -0.763053 0.059343 2.432567
v -0.263053 0.309343 2.432567
v 0.236947 0.309343 2.432568
v 0.736946 0.309343 2.432568
v -0.763053 0.309343 2.432567
v -0.388053 -0.065657 2.532568
v -0.513053 -0.065657 2.532567
v -0.388053 0.434343 2.532568
v -0.513053 0.434343 2.532567
v -0.513053 0.184343 2.532567
v 0.611946 -0.065657 2.532568
v 0.486947 -0.065657 2.532568
v 0.611946 0.434343 2.532568
v 0.486946 0.434343 2.532568
v 0.486946 0.184343 2.532568
v -0.263053 0.309343 2.532568
v -0.263053 0.184343 2.532568
v 0.236946 0.309343 2.532568
v 0.236946 0.184343 2.532568
v 0.736946 0.309343 2.532568
v 0.736946 0.184343 2.532568
v -0.763053 0.309343 2.532567
v -0.763053 0.184343 2.532567
v 0.361947 -0.065657 2.532568
v 0.361946 0.434343 2.532568
v -0.263053 0.059343 2.532568
v 0.236947 0.059343 2.532568
v -0.638053 -0.065657 2.532567
v -0.638053 0.434343 2.532567
v 0.736946 0.059343 2.532568
v -0.763053 0.059343 2.532567
v -0.013053 0.934343 -0.067432
v 0.111947 0.934343 -0.067432
v -0.138053 0.934343 -0.067432
v 0.236946 1.109482 1.932568
v -0.263053 1.109482 1.932567
v -0.013053 0.934343 -0.073621
v -0.513053 0.934343 -0.072640
v 0.486947 0.934343 -0.074602
v -0.513053 -0.065657 -1.567433
v -0.513053 0.184343 -1.067433
v -0.513053 0.184343 -2.067433
v -0.513053 0.434343 -1.567433
v -0.713053 0.059343 -1.817433
v -0.513053 -0.065657 -1.317433
v -0.513053 0.309343 -1.067433
v -0.513053 0.309343 -2.067433
v -0.513053 0.434343 -1.817433
v -0.513053 -0.065657 -1.817433
v -0.513053 0.059343 -1.067433
v -0.513053 0.059343 -2.067433
v -0.513053 0.434343 -1.317433
v -0.513053 0.309343 -1.317433
v -0.513053 0.059343 -1.317433
v -0.513053 0.059343 -1.817433
v -0.513053 0.309343 -1.817433
v -0.913053 0.309343 -1.317433
v -0.913053 0.184343 -1.067433
v -0.913053 -0.065657 -1.567433
v -0.913053 0.059343 -1.817433
v -0.913053 0.434343 -1.567433
v -0.913053 0.059343 -1.317433
v 0.236947 0.434343 -2.067433
v -0.913053 0.309343 -1.817433
v -0.513053 0.121843 -1.942433
v -0.713053 0.184343 -2.067433
v -0.713053 0.309343 -1.817433
v -0.513053 0.246843 -1.942433
v -0.713053 0.246843 -1.942433
v -0.713053 0.121843 -1.942433
v -0.763053 0.121843 -2.817433
v -0.863053 0.121843 -2.817433
v -0.863053 0.246843 -2.817433
v -0.763053 0.246843 -2.817433
v 0.486947 0.434343 -1.567432
v 0.486947 -0.065657 -1.567433
v 0.486947 0.184343 -1.067432
v 0.486947 0.184343 -2.067433
v 0.686947 0.309343 -1.817433
v 0.486947 0.434343 -1.317432
v 0.486947 -0.065657 -1.317433
v 0.486947 0.309343 -1.067432
v 0.486948 0.309343 -2.067433
v 0.486947 0.434343 -1.817432
v 0.486947 -0.065657 -1.817433
v 0.486947 0.059343 -1.067432
v 0.486947 0.059343 -2.067433
v 0.486947 0.059343 -1.317433
v 0.486947 0.309343 -1.317433
v 0.486947 0.309343 -1.817433
v 0.486947 0.059343 -1.817433
v 0.886947 0.059343 -1.317433
v 0.886947 0.184343 -1.067432
v 0.886947 0.434343 -1.567432
v 0.886948 0.309343 -1.817433
v 0.886947 -0.065657 -1.567433
v 0.886947 0.309343 -1.317433
v -0.913053 0.121843 -1.442433
v 0.886947 0.059343 -1.817433
v 0.486947 0.246843 -1.942433
v 0.686947 0.184343 -2.067433
v 0.686947 0.059343 -1.817433
v 0.486947 0.121843 -1.942433
v 0.686947 0.121843 -1.942433
v 0.686947 0.246843 -1.942433
v 0.736947 0.246843 -2.817433
v 0.836947 0.246843 -2.817433
v 0.836947 0.121843 -2.817433
v 0.736947 0.121843 -2.817433
v 0.886947 0.246843 -1.442433
v 0.886947 0.121843 -1.442433
v 0.886947 0.121843 -1.692433
v 0.886947 0.246843 -1.692433
v 0.936947 0.246843 -1.442433
v 0.936947 0.184343 -1.567433
v 0.936947 0.121843 -1.692433
v 0.936947 0.121843 -1.442433
v 0.936947 0.246843 -1.692433
v -0.913053 0.246843 -1.442433
v -0.913053 0.246843 -1.692433
v -0.913053 0.121843 -1.692433
v -0.963053 0.121843 -1.442433
v -0.963053 0.184343 -1.567433
v -0.963053 0.246843 -1.692433
v -0.963053 0.246843 -1.442433
v -0.963053 0.121843 -1.692433
v -0.263053 0.434343 -2.067433
v -0.388053 0.434343 -2.067433
v 0.361948 0.434343 -2.067433
vt 0.771567 0.607321
vt 0.703676 0.000078
vt 0.296325 0.000078
vt 0.228433 0.607321
vt 0.000078 0.460342
vt 0.999922 0.460342
vt 0.000000 0.000000
vn -0.000000 -0.894400 0.447200
vn 0.992300 -0.000000 -0.124000
vn -0.992300 -0.000000 -0.124000
vn -0.000000 -0.000000 1.000000
vn -0.894400 -0.000000 -0.447200
vn -1.000000 0.000000 -0.000000
vn 1.000000 0.000000 0.000000
vn -0.128100 0.991800 -0.000000
vn 0.128100 0.991800 0.000000
vn 0.000500 1.000000 -0.000000
vn 0.000000 -1.000000 -0.000000
vn -0.001000 1.000000 0.000000
vn 0.894400 -0.000000 -0.447200
vn 0.000000 1.000000 0.000000
vn 0.000000 0.000000 -1.000000
vn 0.000000 -0.948700 -0.316200
vn 0.000000 -0.970100 -0.242500
vn 0.587800 0.809000 0.000000
vn -0.766100 -0.390300 0.510700
vn 0.766100 0.390300 -0.510700
vn 0.085400 -0.996300 -0.000000
vn -0.587800 0.809000 -0.000000
vn -0.766100 0.390300 -0.510700
vn 0.766100 -0.390300 0.510700
vn -0.085400 -0.996300 0.000000
vn -0.707100 0.707100 -0.000000
vn 0.707100 0.707100 0.000000
vn -0.707100 -0.707100 -0.000000
vn 0.707100 -0.707100 0.000000
vn -0.000000 -0.996200 0.087200
vn -0.998100 0.000000 0.062400
vn 0.998100 0.000000 0.062400
vn 0.873300 0.435100 -0.219100
vn -0.873200 0.435500 -0.218900
vn -0.706600 0.707600 -0.000300
vn -0.000000 0.894400 -0.447200
vn -0.000000 0.894400 0.447200
vn 0.000000 -0.894400 -0.447200
vn -0.998800 -0.000000 -0.049900
vn 0.998800 0.000000 -0.049900
vn -0.000000 0.998100 -0.062400
vn 0.000000 -0.998100 -0.062400
vn 0.702300 0.702200 -0.117000
usemtl Material
s off
f 30/1/1 258/2/1 259/3/1 38/4/1
f 38/4/2 42/5/2 259/3/2
f 30/1/3 258/2/3 34/6/3
usemtl Material_NONE
f 43/7/4 14/7/4 39/7/4
f 35/7/4 31/7/4 15/7/4
f 34/7/5 176/7/5 171/7/5 180/7/5 32/7/5 4/7/5 12/7/5
f 19/7/6 3/7/6 4/7/6 20/7/6
f 36/7/4 33/7/4 98/7/4 3/7/4 19/7/4
f 17/7/7 1/7/7 2/7/7 18/7/7
f 11/7/8 12/7/8 93/7/8 92/7/8
f 98/7/4 99/7/4 11/7/4 3/7/4
f 9/7/9 10/7/9 89/7/9 88/7/9
f 32/7/5 37/7/5 20/7/5 4/7/5
f 94/7/4 95/7/4 28/7/4 27/7/4
f 44/7/4 41/7/4 94/7/4 27/7/4 29/7/4
f 186/7/6 178/7/6 53/7/6 177/7/6
f 43/7/4 39/7/4 115/7/4 26/7/4 28/7/4 95/7/4
f 169/7/10 167/7/10 55/7/10 26/7/10 115/7/10 39/7/10 57/7/10
f 221/7/7 215/7/7 46/7/7 217/7/7
f 98/7/11 33/7/11 103/7/11 128/7/11 112/7/11
f 29/7/4 27/7/4 96/7/4 33/7/4 36/7/4
f 28/7/4 26/7/4 114/7/4 31/7/4 35/7/4 97/7/4
f 167/7/12 168/7/12 56/7/12 31/7/12 114/7/12 26/7/12 55/7/12
f 9/7/13 1/7/13 40/7/13 216/7/13 207/7/13 212/7/13 42/7/13
f 18/7/4 2/7/4 100/7/4 41/7/4 44/7/4
f 35/7/14 99/7/14 113/7/14 129/7/14 105/7/14
f 1/7/13 17/7/13 45/7/13 40/7/13
f 52/7/6 181/7/6 172/7/6 177/7/6 53/7/6 63/7/6 70/7/6 64/7/6 62/7/6
f 73/7/15 58/7/15 47/7/15 66/7/15
f 48/7/7 213/7/7 208/7/7 217/7/7 46/7/7 58/7/7 73/7/7 71/7/7 60/7/7
f 258/7/14 53/7/14 34/7/14
f 259/7/4 258/7/4 257/7/4 49/7/4 193/7/4
f 40/7/7 45/7/7 58/7/7 46/7/7 215/7/7 206/7/7 211/7/7
f 67/7/15 51/7/15 62/7/15 64/7/15
f 53/7/14 258/7/14 257/7/14 49/7/14 61/7/14 74/7/14 83/7/14 50/7/14 63/7/14
f 32/7/6 175/7/6 170/7/6 179/7/6 52/7/6 62/7/6 37/7/6
f 49/7/14 193/7/14 259/7/14 48/7/14 60/7/14 54/7/14 80/7/14 77/7/14 61/7/14
f 37/7/16 62/7/16 51/7/16 59/7/16 47/7/16 58/7/16 45/7/16
f 17/7/11 18/7/11 44/7/11 29/7/11 36/7/11 19/7/11 20/7/11 37/7/11 45/7/11
f 67/7/15 66/7/15 47/7/15 51/7/15
f 71/7/15 73/7/15 66/7/15 69/7/15
f 74/7/14 61/7/14 65/7/14 75/7/14
f 54/7/2 69/7/2 66/7/2 82/7/2 81/7/2
f 68/7/15 67/7/15 64/7/15 70/7/15
f 50/7/14 83/7/14 84/7/14
f 78/7/15 79/7/15 72/7/15 65/7/15
f 50/7/3 84/7/3 85/7/3 67/7/3 68/7/3
f 50/7/15 68/7/15 70/7/15 63/7/15
f 60/7/15 71/7/15 69/7/15 54/7/15
f 65/7/15 72/7/15 76/7/15 75/7/15
f 83/7/14 74/7/14 75/7/14 84/7/14
f 81/7/15 82/7/15 79/7/15 78/7/15
f 61/7/14 77/7/14 78/7/14 65/7/14
f 81/7/14 80/7/14 54/7/14
f 77/7/14 80/7/14 81/7/14 78/7/14
f 67/7/17 85/7/17 76/7/17 72/7/17 79/7/17 82/7/17 66/7/17
f 75/7/15 76/7/15 85/7/15 84/7/15
f 86/7/18 88/7/18 89/7/18 87/7/18
f 10/7/19 2/7/19 87/7/19 89/7/19
f 1/7/20 9/7/20 88/7/20 86/7/20
f 2/7/21 1/7/21 86/7/21 87/7/21
f 90/7/22 92/7/22 93/7/22 91/7/22
f 12/7/23 4/7/23 91/7/23 93/7/23
f 3/7/24 11/7/24 92/7/24 90/7/24
f 4/7/25 3/7/25 90/7/25 91/7/25
f 27/7/4 28/7/4 97/7/4 96/7/4
f 100/7/7 101/7/7 108/7/7 134/7/7 118/7/7 130/7/7 106/7/7
f 2/7/4 10/7/4 101/7/4 100/7/4
f 99/7/6 98/7/6 112/7/6 131/7/6 119/7/6 135/7/6 113/7/6
f 132/7/4 104/7/4 121/7/4
f 134/7/4 108/7/4 123/7/4
f 133/7/4 125/7/4 111/7/4
f 135/7/4 129/7/4 113/7/4
f 95/7/6 94/7/6 110/7/6 127/7/6 117/7/6 133/7/6 111/7/6
f 96/7/7 97/7/7 104/7/7 132/7/7 116/7/7 126/7/7 102/7/7
f 43/7/14 95/7/14 111/7/14 125/7/14 109/7/14
f 94/7/11 41/7/11 107/7/11 124/7/11 110/7/11
f 101/7/14 43/7/14 109/7/14 123/7/14 108/7/14
f 41/7/11 100/7/11 106/7/11 122/7/11 107/7/11
f 97/7/14 35/7/14 105/7/14 121/7/14 104/7/14
f 33/7/11 96/7/11 102/7/11 120/7/11 103/7/11
f 128/7/4 131/7/4 112/7/4
f 124/7/4 127/7/4 110/7/4
f 105/7/14 129/7/14 159/7/14 139/7/14
f 129/7/26 135/7/26 152/7/26 159/7/26
f 102/7/4 126/7/4 120/7/4
f 106/7/4 130/7/4 122/7/4
f 119/7/6 131/7/6 161/7/6 153/7/6
f 121/7/14 105/7/14 139/7/14 138/7/14
f 134/7/27 123/7/27 143/7/27 150/7/27
f 107/7/11 122/7/11 141/7/11 142/7/11
f 124/7/11 107/7/11 142/7/11 154/7/11
f 133/7/6 117/7/6 149/7/6 148/7/6
f 160/7/4 151/7/4 145/7/4 142/7/4 141/7/4
f 156/7/4 147/7/4 140/7/4 137/7/4 136/7/4
f 142/7/4 145/7/4 149/7/4 157/7/4 154/7/4
f 137/7/4 140/7/4 153/7/4 161/7/4 158/7/4
f 140/7/4 139/7/4 159/7/4 152/7/4 153/7/4
f 145/7/4 144/7/4 155/7/4 148/7/4 149/7/4
f 151/7/4 150/7/4 143/7/4 144/7/4 145/7/4
f 147/7/4 146/7/4 138/7/4 139/7/4 140/7/4
f 127/7/28 124/7/28 154/7/28 157/7/28
f 117/7/6 127/7/6 157/7/6 149/7/6
f 120/7/29 126/7/29 156/7/29 136/7/29
f 118/7/7 134/7/7 150/7/7 151/7/7
f 109/7/14 125/7/14 155/7/14 144/7/14
f 123/7/14 109/7/14 144/7/14 143/7/14
f 116/7/7 132/7/7 146/7/7 147/7/7
f 132/7/27 121/7/27 138/7/27 146/7/27
f 125/7/26 133/7/26 148/7/26 155/7/26
f 103/7/11 120/7/11 136/7/11 137/7/11
f 130/7/7 118/7/7 151/7/7 160/7/7
f 131/7/28 128/7/28 158/7/28 161/7/28
f 128/7/11 103/7/11 137/7/11 158/7/11
f 122/7/29 130/7/29 160/7/29 141/7/29
f 135/7/6 119/7/6 153/7/6 152/7/6
f 126/7/7 116/7/7 147/7/7 156/7/7
f 166/7/30 164/7/30 163/7/30 165/7/30
f 163/7/31 115/7/31 165/7/31
f 115/7/15 114/7/15 166/7/15 165/7/15
f 166/7/32 114/7/32 164/7/32
f 38/7/14 25/7/14 167/7/14 169/7/14
f 25/7/14 30/7/14 168/7/14 167/7/14
f 169/7/33 9/7/33 42/7/33 38/7/33
f 34/7/34 12/7/34 16/7/34 168/7/34 30/7/34
f 15/7/35 31/7/35 56/7/35 12/7/35 11/7/35
f 173/7/36 186/7/36 197/7/36 194/7/36 191/7/36
f 175/7/6 184/7/6 170/7/6
f 184/7/1 171/7/1 188/7/1 192/7/1
f 176/7/6 34/7/6 182/7/6 183/7/6
f 32/7/6 180/7/6 184/7/6 175/7/6
f 183/7/6 182/7/6 173/7/6
f 179/7/6 185/7/6 181/7/6 52/7/6
f 173/7/6 178/7/6 186/7/6
f 180/7/6 171/7/6 184/7/6
f 181/7/6 185/7/6 195/7/6 172/7/6
f 186/7/6 177/7/6 172/7/6 198/7/6
f 171/7/6 176/7/6 183/7/6
f 179/7/6 170/7/6 185/7/6
f 250/7/15 251/7/15 256/7/15 254/7/15
f 251/7/6 190/7/6 189/7/6 192/7/6 228/7/6
f 249/7/14 250/7/14 254/7/14 255/7/14
f 170/7/1 184/7/1 192/7/1 189/7/1
f 183/7/37 173/7/37 191/7/37 187/7/37
f 185/7/38 170/7/38 189/7/38 190/7/38 174/7/38
f 171/7/37 183/7/37 187/7/37 188/7/37
f 190/7/39 194/7/39 203/7/39 202/7/39
f 186/7/36 198/7/36 199/7/36 197/7/36
f 198/7/36 172/7/36 196/7/36 199/7/36
f 250/7/6 194/7/6 190/7/6 251/7/6
f 172/7/38 195/7/38 200/7/38 196/7/38
f 195/7/38 185/7/38 174/7/38 200/7/38
f 201/7/15 202/7/15 203/7/15 204/7/15
f 197/7/40 174/7/40 201/7/40 204/7/40
f 194/7/41 197/7/41 204/7/41 203/7/41
f 174/7/42 190/7/42 202/7/42 201/7/42
f 206/7/38 221/7/38 232/7/38 229/7/38 226/7/38
f 210/7/7 219/7/7 205/7/7
f 219/7/37 207/7/37 223/7/37 227/7/37
f 216/7/7 40/7/7 211/7/7 218/7/7
f 42/7/7 212/7/7 219/7/7 210/7/7
f 218/7/7 211/7/7 206/7/7
f 214/7/7 220/7/7 213/7/7 48/7/7
f 206/7/7 215/7/7 221/7/7
f 212/7/7 207/7/7 219/7/7
f 213/7/7 220/7/7 230/7/7 208/7/7
f 221/7/7 217/7/7 208/7/7 233/7/7
f 207/7/7 216/7/7 218/7/7
f 214/7/7 205/7/7 220/7/7
f 242/7/15 243/7/15 248/7/15 246/7/15
f 243/7/7 225/7/7 224/7/7 227/7/7 240/7/7
f 241/7/11 242/7/11 246/7/11 247/7/11
f 205/7/37 219/7/37 227/7/37 224/7/37
f 218/7/1 206/7/1 226/7/1 222/7/1
f 220/7/36 205/7/36 224/7/36 225/7/36 209/7/36
f 207/7/1 218/7/1 222/7/1 223/7/1
f 225/7/40 229/7/40 238/7/40 237/7/40
f 221/7/38 233/7/38 234/7/38 232/7/38
f 233/7/38 208/7/38 231/7/38 234/7/38
f 242/7/7 229/7/7 225/7/7 243/7/7
f 208/7/36 230/7/36 235/7/36 231/7/36
f 230/7/36 220/7/36 209/7/36 235/7/36
f 236/7/15 237/7/15 238/7/15 239/7/15
f 232/7/39 209/7/39 236/7/39 239/7/39
f 229/7/42 232/7/42 239/7/42 238/7/42
f 209/7/41 225/7/41 237/7/41 236/7/41
f 243/7/14 240/7/14 244/7/14 248/7/14
f 226/7/7 229/7/7 242/7/7 241/7/7 222/7/7
f 240/7/4 241/7/4 247/7/4 244/7/4
f 222/7/7 241/7/7 240/7/7 227/7/7 223/7/7
f 247/7/7 245/7/7 244/7/7
f 247/7/7 246/7/7 245/7/7
f 245/7/7 246/7/7 248/7/7
f 245/7/7 248/7/7 244/7/7
f 251/7/11 228/7/11 252/7/11 256/7/11
f 191/7/6 194/7/6 250/7/6 249/7/6 187/7/6
f 228/7/4 249/7/4 255/7/4 252/7/4
f 187/7/6 249/7/6 228/7/6 192/7/6 188/7/6
f 255/7/6 253/7/6 252/7/6
f 255/7/6 254/7/6 253/7/6
f 253/7/6 254/7/6 256/7/6
f 253/7/6 256/7/6 252/7/6
f 48/7/14 259/7/14 42/7/14
f 39/7/43 14/7/43 169/7/43 9/7/43 10/7/43 57/7/43
l 21 5
l 22 6
l 23 7
l 24 8
l 5 13
l 6 14
l 7 15
l 8 16
l 163 162
l 162 164
